HIERARCHY
ROOT Root
{
	OFFSET 0.00 0.00 0.00
	CHANNELS 6 Xposition Yposition Zposition Xrotation Yrotation Zrotation
	JOINT L_Femur
	{
		OFFSET 4.75421 0.00000 0.00000
		CHANNELS 3 Xrotation Yrotation Zrotation
		JOINT L_Tibia
		{
			OFFSET 0.00000 -15.64471 0.00000
			CHANNELS 3 Xrotation Yrotation Zrotation
			JOINT L_Foot
			{
				OFFSET 0.00000 -16.58293 0.00000
				CHANNELS 3 Xrotation Yrotation Zrotation
				JOINT L_Toe
				{
					OFFSET 0.00000 -1.87793 7.00854
					CHANNELS 3 Xrotation Yrotation Zrotation
					End Site
					{
						OFFSET 0.00000 0.00000 2.95275
					}
				}
			}
			JOINT L_Cal
			{
				OFFSET 0.00000 -18.11020 0.00000
				CHANNELS 3 Xrotation Yrotation Zrotation
				JOINT L_Cal_End
				{
					OFFSET 0.00000 -2.04572 -1.18110
					CHANNELS 3 Xrotation Yrotation Zrotation
				}
			}
		}
	}
	JOINT R_Femur
	{
		OFFSET -4.75421 0.00000 0.00000
		CHANNELS 3 Xrotation Yrotation Zrotation
		JOINT R_Tibia
		{
			OFFSET 0.00000 -15.64471 0.00000
			CHANNELS 3 Xrotation Yrotation Zrotation
			JOINT R_Foot
			{
				OFFSET 0.00000 -16.58293 0.00000
				CHANNELS 3 Xrotation Yrotation Zrotation
				JOINT R_Toe
				{
					OFFSET 0.00000 -1.87793 7.00854
					CHANNELS 3 Xrotation Yrotation Zrotation
					End Site
					{
						OFFSET 0.00000 0.00000 2.95275
					}
				}
			}
			JOINT R_Cal
			{
				OFFSET 0.00000 -18.11020 0.00000
				CHANNELS 3 Xrotation Yrotation Zrotation
				JOINT R_Cal_End
				{
					OFFSET 0.00000 -2.04572 -1.18110
					CHANNELS 3 Xrotation Yrotation Zrotation
				}
			}
		}
	}
	JOINT LowerBack
	{
		OFFSET 0.00000 0.03937 0.00000
		CHANNELS 3 Xrotation Yrotation Zrotation
		JOINT Thorax
		{
			OFFSET 0.00000 14.39695 0.00000
			CHANNELS 3 Xrotation Yrotation Zrotation
			JOINT Neck
			{
				OFFSET 0.00000 8.55300 0.00000
				CHANNELS 3 Xrotation Yrotation Zrotation
				JOINT Head
				{
					OFFSET 0.00000 5.35956 0.00000
					CHANNELS 3 Xrotation Yrotation Zrotation
					End Site
					{
						OFFSET 0.00000 4.52755 0.00000
					}
				}
			}
			JOINT L_Collar
			{
				OFFSET 0.00000 8.55300 0.00000
				CHANNELS 3 Xrotation Yrotation Zrotation
				JOINT L_Humerus
				{
					OFFSET 7.75316 -0.00003 0.00000
					CHANNELS 3 Xrotation Yrotation Zrotation
					JOINT L_Elbow
					{
						OFFSET 11.00312 -0.00004 0.00000
						CHANNELS 3 Xrotation Yrotation Zrotation
						JOINT L_Wrist
						{
							OFFSET 10.82675 -0.00004 0.00000
							CHANNELS 3 Xrotation Yrotation Zrotation
						}
					}
				}
			}
			JOINT R_Collar
			{
				OFFSET 0.00000 8.55300 0.00000
				CHANNELS 3 Xrotation Yrotation Zrotation
				JOINT R_Humerus
				{
					OFFSET -7.75316 -0.00003 0.00000
					CHANNELS 3 Xrotation Yrotation Zrotation
					JOINT R_Elbow
					{
						OFFSET -11.00312 -0.00004 0.00000
						CHANNELS 3 Xrotation Yrotation Zrotation
						JOINT R_Wrist
						{
							OFFSET -10.82675 -0.00004 0.00000
							CHANNELS 3 Xrotation Yrotation Zrotation
						}
					}
				}
			}
		}
	}
}
MOTION
Frames: 9
Frame Time: 0.008333
 49.6581 5.5903 32.4688 -161.5047 -41.6999 120.8765 -69.3969 20.2345 1.7605 28.8798 0.0000 0.0000 12.6311 17.4824 170.3364 26.3683 -0.0000 0.0000 97.6450 -2.6944 -3.4071 0.0000 0.0000 0.0000 -48.5124 13.4907 -7.5142 64.5470 -0.0000 0.0000 27.4206 3.1403 -158.7860 103.6773 0.0000 0.0000 114.4179 5.1674 7.0615 0.0000 -0.0000 0.0000 -43.2395 8.2795 -5.7803 5.3572 18.8563 1.7226 31.7707 -2.6355 8.2222 -29.8769 3.4557 -2.7580 49.4949 -29.1431 -5.4676 -22.2734 2.6486 -47.5564 -0.0002 -40.2761 -0.0001 -0.0000 0.0000 -0.0000 14.2181 5.5580 16.9789 -9.1168 -0.2176 41.5205 -0.0007 72.6474 0.0005 -0.0000 0.0000 -0.0000
 49.2311 5.5670 32.5387 -161.9026 -41.9524 120.3991 -68.2865 20.0521 1.0823 28.5854 -0.0000 -0.0000 12.1045 17.3699 170.2313 27.4695 -0.0000 0.0000 97.1358 -2.6503 -3.3700 0.0000 0.0000 0.0000 -50.1960 13.2851 -7.0234 67.1362 0.0000 0.0000 29.6558 1.2432 -157.6603 84.4916 0.0000 0.0000 114.8063 6.0610 8.5363 0.0000 0.0000 -0.0000 -42.9124 7.8219 -6.0332 5.1814 18.5321 1.8160 30.8147 -2.6427 8.0338 -29.0997 3.6853 -2.6176 48.5907 -28.7176 -5.6159 -22.1120 1.9188 -47.9108 -0.0002 -40.0083 -0.0001 -0.0000 0.0000 -0.0000 14.4614 5.3484 16.5302 -8.8844 -0.0533 42.4290 -0.0006 71.9225 0.0005 -0.0000 0.0000 -0.0000
 48.7959 5.5304 32.6117 -162.3298 -42.2134 120.0716 -66.8812 19.8099 0.1705 27.8879 0.0000 0.0000 11.5863 17.4717 170.2633 24.9805 0.0000 0.0000 97.3224 -2.6138 -3.7592 0.0000 -0.0000 -0.0000 -51.8730 12.9892 -6.7283 69.4642 -0.0000 0.0000 31.5459 -0.9236 -156.2808 96.3690 -0.0000 0.0000 115.6850 7.2172 10.1562 0.0000 0.0000 0.0000 -42.8178 7.4589 -6.3069 5.7656 18.3085 1.8289 29.2730 -2.8825 7.7795 -28.3513 3.8741 -2.6261 47.1374 -28.2663 -6.0860 -22.0461 1.3276 -48.0749 -0.0002 -40.5222 -0.0001 -0.0000 0.0000 -0.0000 14.7233 4.7606 16.1203 -9.0706 0.8342 43.0739 -0.0006 71.1203 0.0004 -0.0000 0.0000 -0.0000
 48.3372 5.4879 32.6806 -162.8433 -42.4724 119.9077 -65.3300 19.7487 -0.9311 27.0395 -0.0000 0.0000 11.1714 17.6656 170.3252 25.3343 -0.0000 0.0000 97.1939 -2.7715 -3.9504 0.0000 -0.0000 0.0000 -53.3237 12.7652 -6.7575 71.4705 0.0000 0.0000 31.3535 -2.9160 -155.4590 95.6145 -0.0000 0.0000 116.1513 7.5626 11.7906 0.0000 -0.0000 -0.0000 -42.9416 7.1549 -6.6987 6.9711 18.2440 1.6630 27.0638 -3.2885 7.5175 -27.2058 4.1013 -2.4772 45.1281 -27.8277 -6.5130 -21.4875 0.4647 -48.3725 -0.0002 -40.7896 -0.0001 -0.0000 0.0000 -0.0000 15.1306 3.9012 15.7218 -9.7234 1.9990 43.6822 -0.0006 70.3642 0.0004 -0.0000 0.0000 -0.0000
 47.8814 5.4569 32.7573 -163.3007 -42.7471 119.7122 -63.7328 19.6199 -1.9565 26.1081 0.0000 0.0000 10.8748 17.7349 170.3802 25.1849 0.0000 0.0000 97.0398 -2.7772 -4.0344 0.0000 -0.0000 0.0000 -54.6286 12.5213 -6.6745 73.1133 -0.0000 0.0000 29.8335 -4.7437 -156.2815 87.6391 -0.0000 0.0000 116.0539 7.1918 12.5693 0.0000 -0.0000 -0.0000 -43.0061 6.6278 -7.1031 7.7798 17.8729 1.7552 25.5246 -3.4113 7.1999 -26.3565 4.6562 -2.8882 43.2576 -27.3302 -7.3609 -21.2133 0.1489 -48.4706 -0.0002 -41.4880 -0.0001 -0.0000 0.0000 -0.0000 16.3308 3.6204 15.1449 -10.9837 3.3278 44.2843 -0.0006 69.3195 0.0004 -0.0000 0.0000 -0.0000
 47.4461 5.4488 32.8371 -163.7175 -42.9297 119.1188 -62.5058 19.1903 -2.5868 25.4144 0.0000 0.0000 10.5148 17.7451 170.4865 25.4841 -0.0000 0.0000 96.6218 -3.0051 -4.0378 0.0000 -0.0000 0.0000 -55.9268 12.0159 -6.1644 74.2379 -0.0000 0.0000 27.7160 -6.2773 -157.2800 79.2044 -0.0000 0.0000 114.9110 6.9115 13.4393 0.0000 -0.0000 -0.0000 -42.9489 6.2850 -7.2578 7.8363 17.5341 1.8659 24.7674 -3.4794 7.1739 -25.6370 4.8628 -2.6431 42.6502 -27.1635 -7.1968 -21.6058 -0.0305 -48.8342 -0.0002 -41.7100 -0.0001 -0.0000 0.0000 -0.0000 16.6559 3.3983 15.0940 -10.7684 3.7955 44.4938 -0.0005 68.5871 0.0004 -0.0000 0.0000 -0.0000
 46.9905 5.4360 32.9136 -164.0730 -43.2093 118.8127 -60.8638 18.9137 -3.4800 24.2832 -0.0000 -0.0000 10.2770 18.1068 170.5731 24.9148 -0.0000 0.0000 96.4754 -3.3796 -2.8478 0.0000 -0.0000 -0.0000 -57.0704 11.8089 -5.8463 75.1728 -0.0000 0.0000 24.9788 -7.3048 -158.2920 68.6411 -0.0000 0.0000 113.5771 6.3545 14.0087 0.0000 -0.0000 -0.0000 -43.1199 5.9217 -7.4956 9.0654 17.1558 1.9496 23.0316 -3.6755 6.8306 -24.9974 5.1977 -2.8316 41.5278 -26.8446 -7.5099 -22.1287 -0.5316 -48.9230 -0.0002 -42.3303 -0.0001 -0.0000 0.0000 -0.0000 17.7837 2.7201 14.7265 -12.2179 5.4492 44.9267 -0.0005 67.5518 0.0003 -0.0000 0.0000 -0.0000
 46.5189 5.4073 32.9956 -164.4215 -43.5166 118.4847 -59.1128 18.3083 -4.3976 23.0615 0.0000 -0.0000 10.0786 18.2630 170.5762 25.0568 -0.0000 0.0000 96.5460 -3.2264 -3.1547 0.0000 -0.0000 0.0000 -58.1798 11.5003 -5.6763 75.8522 -0.0000 0.0000 22.7295 -7.7154 -160.1910 64.5740 -0.0000 0.0000 112.1761 5.1821 13.5504 0.0000 -0.0000 -0.0000 -43.2600 5.5925 -7.6770 10.2242 16.7590 2.0149 21.3862 -3.4931 6.1995 -24.2563 5.1477 -2.5009 39.9285 -26.5552 -8.1096 -21.8448 -1.3412 -48.7324 -0.0002 -43.0721 -0.0001 -0.0000 0.0000 -0.0000 19.9783 2.0431 14.5483 -14.6774 7.5412 45.1287 -0.0005 66.3028 0.0003 -0.0000 0.0000 -0.0000
 46.1053 5.4194 33.0615 -164.8663 -43.7611 117.7936 -57.9218 17.7067 -4.9206 22.3642 0.0000 -0.0000 9.8942 18.2689 170.4464 25.2924 -0.0000 0.0000 96.1405 -3.2846 -3.2716 0.0000 -0.0000 -0.0000 -59.5345 11.0222 -5.1575 76.4968 -0.0000 0.0000 21.0435 -7.4380 -159.7118 67.2875 -0.0000 0.0000 111.0216 3.8525 12.9466 0.0000 0.0000 -0.0000 -43.1299 5.0759 -7.8772 10.2192 16.2609 2.2765 20.7446 -3.4811 6.1167 -23.6574 5.4180 -2.4887 39.4221 -26.2331 -8.0728 -22.7121 -1.2766 -49.1065 -0.0002 -43.5399 -0.0001 -0.0000 0.0000 -0.0000 20.3961 1.9440 14.4394 -14.7246 7.9553 45.3526 -0.0005 65.7053 0.0003 -0.0000 0.0000 -0.0000
